<mxfile host="app.diagrams.net" modified="2024-03-18T08:21:25.840Z" agent="Mozilla/5.0 (Windows NT 10.0; Win64; x64) AppleWebKit/537.36 (KHTML, like Gecko) Chrome/122.0.0.0 Safari/537.36" version="22.1.20" etag="n1rsi5aimnX5AwaTI8sg" type="github">
  <diagram name="第 1 页" id="0muv4bw60bhr_mmZlzVu">
    <mxGraphModel>
      <root>
        <mxCell id="0" />
        <mxCell id="1" parent="0" />
      </root>
    </mxGraphModel>
  </diagram>
</mxfile>
